<svg xmlns="http://www.w3.org/2000/svg" viewBox="0 0 199.49 225.71"><defs><style>.cls-1{fill:#501720;}.cls-2{fill:#fff;}</style></defs><g id="Capa_2" data-name="Capa 2"><g id="Capa_2-2" data-name="Capa 2"><path class="cls-1" d="M173,82.88l-72.95,37a.93.93,0,0,1-.83,0L26.12,82.45a.91.91,0,0,1,0-1.61l11.64-6.53a.89.89,0,0,0,.46-.87C37.86,69.8,36,50.21,33.25,42.05c0,0,0,0,0,0-.12-.48-2.28-9-4.12-12a.91.91,0,0,0-1.47-.13c-1.17,1.4-4,3.61-7.95-.75a1.43,1.43,0,0,1-.14-.2A18.5,18.5,0,0,1,18.2,16.18a1.17,1.17,0,0,1,.14-.3C19,15,22.52,10.3,25.25,13c0,0,2,1,7,11l7,13.91a1,1,0,0,0,.1.17,53.57,53.57,0,0,0,8,7.92s6,5,11.94,0l.1-.09c.43-.45,3.8-4.11,3-7.81a.82.82,0,0,0-.1-.26,17.78,17.78,0,0,1-2-10.75,1.12,1.12,0,0,1,.08-.26c.45-.93,3.43-6.64,9-3.88,0,0,3,1,2,10.89a.8.8,0,0,1-.05.21,58.83,58.83,0,0,1-2.71,6.39.9.9,0,0,0,.12,1A16.76,16.76,0,0,0,75.22,46l0,0c.42.15,8.15,2.88,14-1a21.64,21.64,0,0,0,8-12s2-6-1-10c0,0-7-8-5-13,0,0,3-10,9-10,0,0,9-1,10,9.94a.48.48,0,0,1,0,.12,29,29,0,0,1-4,12.94s-5,8-1,15a17.15,17.15,0,0,0,10,8,15.14,15.14,0,0,0,13-3s2-1,0-7a.29.29,0,0,1,0-.09c-.15-.7-1.78-9.12,3-13,0,0,5-5,9,0,0,0,2.95,3.94,3,10.83a.72.72,0,0,1-.05.33,28.44,28.44,0,0,1-2.66,5.41.9.9,0,0,0,0,.95c.56,1,2.25,3.23,6.76,5.48,0,0,3,2,7.94-1l.1-.07c.65-.49,8-6.18,10.92-11.9l.06-.13c.39-1.18,6-17.63,9.84-19.87a1.12,1.12,0,0,1,.31-.1c.77-.15,4-.59,5.76,1.94a1.18,1.18,0,0,1,.11.19c.41,1,3.71,9.15,0,12.9a14.16,14.16,0,0,1-4.87,3,1.28,1.28,0,0,1-.27.05c-.72,0-4,.33-4.86,3l-6,15.94a.56.56,0,0,0,0,.12c-.24,1.1-3.95,18-4,22.88v.13l.11.86a.91.91,0,0,0,.41.66l10.3,6.68A.92.92,0,0,1,173,82.88Z"/><path class="cls-1" d="M174.45,85.52h0a3.14,3.14,0,0,0-1.37.33L101,122.39a3,3,0,0,1-2.75,0L26.87,85.86a3,3,0,0,0-1.38-.34H25a3,3,0,0,0-2.92,2.21L.11,166a3,3,0,0,0,1.4,3.44l96.72,55.84a3,3,0,0,0,3,0L198,169.47a3,3,0,0,0,1.4-3.44l-22-78.3A3,3,0,0,0,174.45,85.52Z"/><path class="cls-2" d="M99.25,128s-3,33.92,0,79.3S102.25,131.59,99.25,128Z"/></g></g></svg>